<?xml version="1.0" encoding="UTF-8"?> <svg xmlns="http://www.w3.org/2000/svg" width="367" height="270" viewBox="0 0 367 270" fill="none"><g clip-path="url(#clip0_11452_104436)"><rect width="367" height="270" fill="#FF6700"></rect><path d="M-218 233.5L-199 206H-176.5L-137 166L-87.5 146L16.5 170L37.5 186.5L93.5 166L155.5 177.5L368 37" stroke="#FFD333" stroke-width="2"></path><path d="M-199 206L-218 233.5H368V37L155.5 177.5L93.5 166L37.5 186.5L16.5 170L-87.5 146L-137 166L-176.5 206H-199Z" fill="url(#paint0_linear_11452_104436)"></path><rect x="97" y="53" width="157.545" height="86.5273" rx="7.81818" fill="white"></rect><path opacity="0.7" d="M128.874 78.7617V72.1569H133.227V72.9825H129.85V75.0465H132.627V75.8721H129.85V78.7617H128.874ZM136.038 78.7617H135.062V72.1569H136.038V78.7617ZM138.181 78.7617V72.1569H139.682L142.628 78.0018C142.646 78.0299 142.665 78.0675 142.712 78.0581C142.778 78.0393 142.768 77.983 142.731 77.8986C142.637 77.6828 142.609 77.4576 142.609 77.1856V72.1569H143.584V78.7617H142.083L139.138 72.9168C139.128 72.8887 139.091 72.8418 139.053 72.8606C138.987 72.8887 138.997 72.9356 139.034 73.02C139.128 73.2358 139.156 73.461 139.156 73.7331V78.7617H138.181ZM150.414 78.7617L149.879 77.1856H146.82L146.286 78.7617H145.197L147.599 72.1569H149.1L151.502 78.7617H150.414ZM147.092 76.36H149.607L148.519 73.1326C148.481 73.0107 148.443 72.8981 148.425 72.7386C148.415 72.6823 148.415 72.626 148.35 72.626C148.284 72.626 148.284 72.6823 148.275 72.7386C148.256 72.8981 148.218 73.0107 148.181 73.1326L147.092 76.36ZM153.039 78.7617V72.1569H154.54L157.486 78.0018C157.505 78.0299 157.524 78.0675 157.571 78.0581C157.636 78.0393 157.627 77.983 157.59 77.8986C157.496 77.6828 157.468 77.4576 157.468 77.1856V72.1569H158.443V78.7617H156.942L153.996 72.9168C153.987 72.8887 153.949 72.8418 153.912 72.8606C153.846 72.8887 153.856 72.9356 153.893 73.02C153.987 73.2358 154.015 73.461 154.015 73.7331V78.7617H153.039ZM160.21 75.4593C160.21 73.5923 161.364 72.0819 163.4 72.0819C165.445 72.0819 166.28 73.4985 166.364 74.6337H165.398C165.304 73.855 164.694 72.9075 163.428 72.9075C162.002 72.9075 161.186 74.0427 161.186 75.4593C161.186 76.876 162.002 78.0112 163.428 78.0112C164.694 78.0112 165.304 77.0636 165.398 76.2849H166.364C166.28 77.4201 165.445 78.8368 163.4 78.8368C161.364 78.8368 160.21 77.3263 160.21 75.4593ZM169.103 78.7617H168.127V72.1569H169.103V78.7617ZM171.246 78.7617V72.1569H172.747L175.693 78.0018C175.712 78.0299 175.73 78.0675 175.777 78.0581C175.843 78.0393 175.834 77.983 175.796 77.8986C175.702 77.6828 175.674 77.4576 175.674 77.1856V72.1569H176.65V78.7617H175.149L172.203 72.9168C172.194 72.8887 172.156 72.8418 172.118 72.8606C172.053 72.8887 172.062 72.9356 172.1 73.02C172.194 73.2358 172.222 73.461 172.222 73.7331V78.7617H171.246ZM178.416 75.4593C178.416 73.5923 179.589 72.0819 181.663 72.0819C183.52 72.0819 184.374 73.1045 184.571 74.2584H183.595C183.361 73.339 182.704 72.9075 181.663 72.9075C180.265 72.9075 179.392 74.0427 179.392 75.4593C179.392 76.876 180.133 78.0112 181.606 78.0112C182.77 78.0112 183.436 77.1199 183.586 76.1348H181.719V75.3092H184.571V78.7617H183.595V78.0675C183.595 77.8798 183.623 77.711 183.689 77.5233C183.717 77.4483 183.736 77.392 183.68 77.3638C183.633 77.3357 183.595 77.3826 183.576 77.4295C183.389 77.8892 182.77 78.8368 181.437 78.8368C179.523 78.8368 178.416 77.3263 178.416 75.4593Z" fill="black"></path><path d="M129.274 107.006H132.401C132.464 109.008 133.433 111.76 137.03 112.197V104.723C132.527 103.973 130.025 102.19 130.025 98.6875C130.025 95.4977 132.558 92.8708 137.03 92.5268V89.7435H139.031V92.5268C143.753 92.9334 145.849 96.1544 145.943 99.5006H142.909C142.909 97.7494 141.846 95.7166 139.031 95.3101V101.877C143.503 102.565 146.787 103.785 146.787 108.194C146.787 111.541 144.16 114.637 139.031 114.981V117.764H137.03V114.981C131.651 114.574 129.274 110.853 129.274 107.006ZM133.246 98.4999C133.246 99.6883 133.715 100.908 137.03 101.565V96.7799C137.03 96.1857 137.061 95.7479 137.186 95.5915C137.374 95.3414 137.655 95.3414 137.499 95.0599C137.436 94.9348 136.311 94.9974 135.404 95.4039C133.777 96.1232 133.246 97.4366 133.246 98.4999ZM138.562 112.448C138.656 112.635 139.751 112.479 140.439 112.197C142.909 111.197 143.535 109.727 143.535 108.382C143.535 106.6 142.503 105.568 139.031 105.005V110.759C139.031 111.353 139 111.791 138.781 112.01C138.625 112.166 138.468 112.229 138.562 112.448ZM152.855 92.7457H155.356V114.762H152.354V99.1254H147.351V96.8737C152.135 96.8737 152.323 96.1857 152.855 92.7457ZM163.7 101.627C167.077 98.1246 175.927 99.1566 175.927 107.069C175.927 111.259 173.582 115.012 167.859 115.012C162.574 115.012 159.916 111.916 159.916 107.757H162.855C162.855 109.57 163.825 112.26 167.859 112.26C171.58 112.26 172.925 109.727 172.925 107.256C172.925 104.911 171.612 102.503 167.984 102.472C165.201 102.44 164.106 103.816 163.356 105.255H160.416L161.917 92.7457H174.457V95.4977H164.356L163.918 99.5006C163.887 99.9697 163.731 100.595 163.481 101.127C163.356 101.408 163.074 101.565 163.293 101.752C163.481 101.909 163.637 101.69 163.7 101.627ZM186.987 92.4955C192.553 92.4955 195.493 97.3115 195.493 103.754C195.493 110.196 192.553 115.012 186.987 115.012C181.42 115.012 178.481 110.196 178.481 103.754C178.481 97.3115 181.42 92.4955 186.987 92.4955ZM186.987 112.26C190.646 112.26 192.491 108.757 192.491 103.754C192.491 98.7501 190.646 95.2475 186.987 95.2475C183.328 95.2475 181.483 98.7501 181.483 103.754C181.483 108.757 183.328 112.26 186.987 112.26ZM198.046 114.762V92.7457H203.926L209.054 110.634C209.211 111.197 209.273 111.603 209.304 112.26C209.304 112.448 209.304 112.635 209.555 112.635C209.805 112.635 209.805 112.448 209.805 112.26C209.836 111.603 209.899 111.197 210.055 110.634L215.184 92.7457H221.063V114.762H217.811V96.7799C217.811 96.217 217.873 95.6854 218.092 94.9035C218.155 94.6534 218.217 94.4657 217.998 94.4032C217.811 94.3406 217.717 94.5283 217.686 94.6534L211.681 114.762H207.428L201.424 94.6534C201.392 94.5283 201.299 94.3406 201.111 94.4032C200.892 94.4657 200.923 94.6534 201.017 94.9035C201.236 95.6854 201.299 96.217 201.299 96.7799V114.762H198.046Z" fill="black"></path><line x1="271.5" y1="-2.18557e-08" x2="271.5" y2="270" stroke="white" stroke-opacity="0.5" stroke-dasharray="4 4"></line><circle cx="271" cy="101" r="6" fill="white"></circle></g><defs><linearGradient id="paint0_linear_11452_104436" x1="75" y1="37" x2="75" y2="233.5" gradientUnits="userSpaceOnUse"><stop stop-color="#FFF500"></stop><stop offset="1" stop-color="#FFF500" stop-opacity="0"></stop></linearGradient><clipPath id="clip0_11452_104436"><rect width="367" height="270" fill="white"></rect></clipPath></defs></svg> 